<?xml version="1.0" encoding="utf-8"?>
<!-- Generator: Adobe Illustrator 15.0.0, SVG Export Plug-In . SVG Version: 6.00 Build 0)  -->
<!DOCTYPE svg PUBLIC "-//W3C//DTD SVG 1.1//EN" "http://www.w3.org/Graphics/SVG/1.1/DTD/svg11.dtd">
<svg version="1.1" id="Layer_1" xmlns="http://www.w3.org/2000/svg" xmlns:xlink="http://www.w3.org/1999/xlink" x="0px" y="0px"
	 width="600px" height="600px" viewBox="-2.359 120.946 600 600" enable-background="new -2.359 120.946 600 600"
	 xml:space="preserve">
<path fill="#FFFFFF" d="M37.205,160.51h520.871v520.871H37.205V160.51z"/>
<path fill="#999999" d="M37.205,160.51v520.871h520.871V160.51H37.205z M74.41,197.715h446.46v446.463H74.41V197.715z"/>
<g>
	<rect x="110.14" y="352.75" fill="#B9B9B9" width="101.19" height="102.732"/>
	<rect x="110.14" y="489.57" fill="#B9B9B9" width="101.19" height="102.732"/>
	<rect x="247.046" y="352.75" fill="#B9B9B9" width="101.19" height="102.732"/>
	<rect x="247.046" y="489.57" fill="#B9B9B9" width="101.19" height="102.732"/>
	<rect x="383.97" y="352.75" fill="#B9B9B9" width="101.19" height="102.732"/>
	<rect x="383.97" y="489.57" fill="#B9B9B9" width="101.19" height="102.732"/>
	<rect x="142.877" y="222.498" fill="#666666" width="40" height="52"/>
	<g>
		<rect x="412.423" y="222.498" fill="#666666" width="40" height="52"/>
		<g>
			<polygon fill="#666666" points="460.423,249.59 460.423,274.498 460.423,282.498 452.423,282.498 412.423,282.498 
				404.423,282.498 404.423,274.498 404.423,249.59 190.877,249.59 190.877,274.498 190.877,282.498 182.877,282.498 
				142.877,282.498 134.877,282.498 134.877,274.498 134.877,249.59 110.14,249.59 110.14,318.25 485.16,318.25 485.16,249.59 			
				"/>
		</g>
	</g>
</g>
<g>
	<rect x="282.499" y="402.66" fill="#DA1F3D" width="220.888" height="220.901"/>
	<g>
		<path fill="#FFFFFF" d="M396.092,402.66v196.172h39.16v24.732h8.897v-33.426c0,0-32.17,0-39.157,0c0-8.295,0-187.479,0-187.479
			H396.092L396.092,402.66z"/>
		<polygon fill="#FFFFFF" points="411.762,488.167 411.762,584.051 450.313,584.051 450.313,623.564 459.205,623.564 
			459.205,575.378 420.653,575.378 420.653,496.84 503.396,496.84 503.396,488.167 		"/>
		<polygon fill="#FFFFFF" points="341.601,402.66 341.601,436.219 380.665,436.219 380.665,623.564 389.563,623.564 389.563,427.51 
			350.496,427.51 350.496,402.66 		"/>
		<polygon fill="#FFFFFF" points="326.258,402.658 326.258,451 365.287,451 365.287,530.293 282.489,530.293 282.489,539.041 
			374.125,539.041 374.125,442.246 335.1,442.246 335.1,402.658 		"/>
	</g>
</g>
</svg>
